<svg width="24" height="24" viewBox="0 0 24 24" fill="none" xmlns="http://www.w3.org/2000/svg">
<g transform="translate(3.75 0)">
<path d="M10.266 3.47616C11.3561 3.47784 13.2021 3.38654 14.1976 3.60214C14.7173 3.71465 15.0989 3.94723 15.4867 4.30722C16.1577 4.93023 16.4292 5.56368 16.4544 6.47518C16.529 9.17147 16.5007 11.8776 16.4915 14.5748C16.4895 15.3694 16.4812 16.1641 16.4671 16.9586C16.4585 17.4475 16.4843 17.9754 16.3831 18.4547C16.2997 18.8496 15.9933 19.27 15.7191 19.5572C15.2701 20.0272 14.6019 20.4439 13.9349 20.4478C13.1826 20.4521 12.8688 19.8791 12.3997 19.4049C12.2795 19.3852 12.1485 19.3627 12.0267 19.3707C11.7238 19.3906 11.4921 19.6978 11.2992 19.9C10.9861 20.2284 10.6435 20.4727 10.1732 20.4781C9.43043 20.4865 8.9849 19.8478 8.5013 19.3805C8.39517 19.3712 8.28562 19.3579 8.17904 19.3629C7.78689 19.3812 7.53212 19.801 7.29525 20.0611C7.0383 20.3432 6.73801 20.4584 6.3597 20.4703C5.65106 20.4926 5.34481 20.0187 4.87923 19.5963C4.71409 19.4464 4.53209 19.3364 4.30111 19.359C3.944 19.3939 3.74412 19.7058 3.52767 19.9527C3.28052 20.2346 3.02749 20.4371 2.63802 20.4537C2.01825 20.48 1.39487 20.1587 0.942709 19.7574C0.34283 19.2249 0.0663459 18.6409 0.0266929 17.8414C-0.0182378 16.9333 0.00742441 16.0127 0.00618512 15.1031L0.00423199 10.1734L0.0110679 7.43319C0.0146551 6.90889 -0.0275649 6.30324 0.0804039 5.79061C0.179284 5.32138 0.451772 4.85536 0.77474 4.50546C1.59186 3.62044 2.4448 3.53234 3.58626 3.49179C5.8127 3.47337 8.03951 3.46848 10.266 3.47616ZM5.87435 6.88632C5.42336 7.01382 5.12313 7.20828 4.89486 7.63046C4.63889 8.10365 4.58839 8.69627 4.75228 9.20761C4.88478 9.621 5.15449 9.97737 5.55501 10.1607C5.71766 10.2351 5.8878 10.2577 6.06478 10.2701C6.51514 10.1455 6.81761 9.95463 7.04818 9.53475C7.3019 9.07292 7.35247 8.47532 7.19564 7.97421C7.06678 7.56269 6.80071 7.18829 6.40169 7.0035C6.23687 6.92723 6.05453 6.89796 5.87435 6.88632ZM10.472 6.88534C10.0239 6.99955 9.70733 7.18821 9.47396 7.60214C9.20933 8.07207 9.17412 8.77028 9.34212 9.27987C9.46795 9.66097 9.71949 9.97938 10.0843 10.1558C10.2666 10.2439 10.4467 10.2741 10.6478 10.2701C11.0552 10.1713 11.355 9.97757 11.5785 9.61483C11.8639 9.15158 11.9139 8.46783 11.766 7.94979C11.6562 7.56588 11.4146 7.22784 11.056 7.04159C10.8746 6.94754 10.6753 6.8989 10.472 6.88534Z" fill="#2A2A2A"/>
</g>
</svg>
