<svg width="127" height="32" viewBox="0 0 127 32" fill="none" xmlns="http://www.w3.org/2000/svg">
<path d="M14.266 7.47616C15.3561 7.47784 17.2021 7.38654 18.1976 7.60214C18.7173 7.71465 19.0989 7.94723 19.4867 8.30722C20.1577 8.93023 20.4292 9.56368 20.4544 10.4752C20.529 13.1715 20.5007 15.8776 20.4915 18.5748C20.4895 19.3694 20.4812 20.1641 20.4671 20.9586C20.4585 21.4475 20.4843 21.9754 20.3831 22.4547C20.2997 22.8496 19.9933 23.27 19.7191 23.5572C19.2701 24.0272 18.6019 24.4439 17.9349 24.4478C17.1826 24.4521 16.8688 23.8791 16.3997 23.4049C16.2795 23.3852 16.1485 23.3627 16.0267 23.3707C15.7238 23.3906 15.4921 23.6978 15.2992 23.9C14.9861 24.2284 14.6435 24.4727 14.1732 24.4781C13.4304 24.4865 12.9849 23.8478 12.5013 23.3805C12.3952 23.3712 12.2856 23.3579 12.179 23.3629C11.7869 23.3812 11.5321 23.801 11.2952 24.0611C11.0383 24.3432 10.738 24.4584 10.3597 24.4703C9.65106 24.4926 9.34481 24.0187 8.87923 23.5963C8.71409 23.4464 8.53209 23.3364 8.30111 23.359C7.944 23.3939 7.74412 23.7058 7.52767 23.9527C7.28052 24.2346 7.02749 24.4371 6.63802 24.4537C6.01825 24.48 5.39487 24.1587 4.94271 23.7574C4.34283 23.2249 4.06635 22.6409 4.02669 21.8414C3.98176 20.9333 4.00742 20.0127 4.00619 19.1031L4.00423 14.1734L4.01107 11.4332C4.01466 10.9089 3.97244 10.3032 4.0804 9.79061C4.17928 9.32138 4.45177 8.85536 4.77474 8.50546C5.59186 7.62044 6.4448 7.53234 7.58626 7.49179C9.8127 7.47337 12.0395 7.46848 14.266 7.47616ZM9.87435 10.8863C9.42336 11.0138 9.12313 11.2083 8.89486 11.6305C8.63889 12.1036 8.58839 12.6963 8.75228 13.2076C8.88478 13.621 9.15449 13.9774 9.55501 14.1607C9.71766 14.2351 9.8878 14.2577 10.0648 14.2701C10.5151 14.1455 10.8176 13.9546 11.0482 13.5348C11.3019 13.0729 11.3525 12.4753 11.1956 11.9742C11.0668 11.5627 10.8007 11.1883 10.4017 11.0035C10.2369 10.9272 10.0545 10.898 9.87435 10.8863ZM14.472 10.8853C14.0239 10.9995 13.7073 11.1882 13.474 11.6021C13.2093 12.0721 13.1741 12.7703 13.3421 13.2799C13.4679 13.661 13.7195 13.9794 14.0843 14.1558C14.2666 14.2439 14.4467 14.2741 14.6478 14.2701C15.0552 14.1713 15.355 13.9776 15.5785 13.6148C15.8639 13.1516 15.9139 12.4678 15.766 11.9498C15.6562 11.5659 15.4146 11.2278 15.056 11.0416C14.8746 10.9475 14.6753 10.8989 14.472 10.8853Z" fill="url(#paint0_linear_5377_140)"/>
<path d="M108.232 23.0565C106.475 23.0565 105.035 22.723 103.913 22.0561C102.807 21.3729 102.172 20.4375 102.01 19.2501L106.597 18.2497C106.613 19.4046 107.199 19.9821 108.354 19.9821C108.679 19.9821 108.956 19.9089 109.183 19.7625C109.427 19.5998 109.549 19.3965 109.549 19.1525C109.549 18.8109 109.297 18.5506 108.793 18.3717C108.289 18.1927 107.679 18.0382 106.963 17.9081C106.247 17.7779 105.532 17.599 104.816 17.3712C104.1 17.1435 103.49 16.745 102.986 16.1756C102.482 15.59 102.229 14.8418 102.229 13.9308C102.229 12.597 102.815 11.5315 103.986 10.7344C105.157 9.92107 106.597 9.5144 108.305 9.5144C109.948 9.5144 111.266 9.84787 112.258 10.5148C113.266 11.1817 113.901 12.0764 114.161 13.1988L109.745 14.1992C109.728 13.0931 109.2 12.54 108.159 12.54C107.345 12.54 106.939 12.8328 106.939 13.4184C106.939 13.7275 107.191 13.9715 107.695 14.1504C108.216 14.3294 108.842 14.492 109.574 14.6384C110.306 14.7686 111.03 14.9556 111.745 15.1996C112.477 15.4274 113.096 15.8422 113.6 16.444C114.12 17.0459 114.381 17.8186 114.381 18.7621C114.381 20.1285 113.828 21.1858 112.721 21.9341C111.632 22.6823 110.135 23.0565 108.232 23.0565Z" fill="#FFFFFF"/>
<path d="M95.9287 23.0565C93.7978 23.0565 92.1223 22.4139 90.9023 21.1289C89.6823 19.8438 89.0723 18.2415 89.0723 16.322C89.0723 14.3538 89.7067 12.7271 90.9755 11.442C92.2443 10.1569 93.8791 9.5144 95.8799 9.5144C97.8319 9.5144 99.3935 10.1244 100.565 11.3444C101.752 12.5482 102.346 14.1504 102.346 16.1512C102.346 16.4928 102.313 16.9402 102.248 17.4932H93.7327C93.9604 18.7783 94.7168 19.4209 96.0019 19.4209C97.0755 19.4209 97.8075 18.8922 98.1979 17.8349L102.126 20.0553C101.492 20.9987 100.638 21.7389 99.5643 22.2757C98.4907 22.7962 97.2788 23.0565 95.9287 23.0565ZM93.7815 14.9068H97.7343C97.6692 14.3212 97.474 13.8658 97.1487 13.5404C96.8234 13.1988 96.3923 13.028 95.8555 13.028C95.3024 13.028 94.847 13.1988 94.4891 13.5404C94.1475 13.8658 93.9116 14.3212 93.7815 14.9068Z" fill="#FFFFFF"/>
<path d="M70.5664 22.6905V10.0024H75.0072V11.198C75.7067 10.0756 76.7803 9.5144 78.2281 9.5144C79.7734 9.5144 80.8714 10.1976 81.5221 11.564C82.189 10.1976 83.3927 9.5144 85.1333 9.5144C86.3858 9.5144 87.3537 9.92921 88.0369 10.7588C88.7201 11.5721 89.0617 12.7515 89.0617 14.2968V22.6905H84.6209V14.98C84.6209 14.5408 84.507 14.1992 84.2793 13.9552C84.0678 13.7112 83.7669 13.5892 83.3765 13.5892C82.4818 13.5892 82.0345 14.2155 82.0345 15.468V22.6905H77.5936V14.98C77.5936 14.5408 77.4798 14.1992 77.252 13.9552C77.0406 13.7112 76.7478 13.5892 76.3736 13.5892C75.9507 13.5892 75.6172 13.7519 75.3732 14.0772C75.1292 14.4026 75.0072 14.8662 75.0072 15.468V22.6905H70.5664Z" fill="#FFFFFF"/>
<path d="M65.657 22.6905V10.0024H70.0978V22.6905H65.657ZM69.683 8.39202C69.195 8.89629 68.5932 9.14843 67.8774 9.14843C67.1617 9.14843 66.5517 8.89629 66.0474 8.39202C65.5432 7.88776 65.291 7.27775 65.291 6.56201C65.291 5.86254 65.5432 5.26067 66.0474 4.7564C66.5517 4.25213 67.1617 4 67.8774 4C68.5769 4 69.1788 4.25213 69.683 4.7564C70.1873 5.26067 70.4394 5.86254 70.4394 6.56201C70.4394 7.27775 70.1873 7.88776 69.683 8.39202Z" fill="#FFFFFF"/>
<path d="M61.7787 22.6905C60.2334 22.6905 59.1028 22.3408 58.3871 21.6413C57.6876 20.9256 57.3379 19.795 57.3379 18.2497V8.78243L61.7543 4.75641H61.7787V10.0024H65.5363V13.9553H61.7787V18.7133H65.5363V22.6905H61.7787Z" fill="#FFFFFF"/>
<path d="M46.4443 27.9365L48.5427 22.3489H47.3715L42.9551 10.0024H47.7863L50.2995 17.8837L52.8127 10.0024H57.644L51.2023 27.9365H46.4443Z" fill="#FFFFFF"/>
<path d="M25.5039 22.6905V10.0024H29.9447V11.198C30.6442 10.0756 31.7178 9.5144 33.1655 9.5144C34.7109 9.5144 35.8089 10.1976 36.4596 11.564C37.1265 10.1976 38.3302 9.5144 40.0708 9.5144C41.3233 9.5144 42.2912 9.92921 42.9744 10.7588C43.6576 11.5721 43.9992 12.7515 43.9992 14.2968V22.6905H39.5584V14.98C39.5584 14.5408 39.4445 14.1992 39.2168 13.9552C39.0053 13.7112 38.7044 13.5892 38.314 13.5892C37.4193 13.5892 36.972 14.2155 36.972 15.468V22.6905H32.5311V14.98C32.5311 14.5408 32.4173 14.1992 32.1895 13.9552C31.9781 13.7112 31.6853 13.5892 31.3111 13.5892C30.8882 13.5892 30.5547 13.7519 30.3107 14.0772C30.0667 14.4026 29.9447 14.8662 29.9447 15.468V22.6905H25.5039Z" fill="#FFFFFF"/>
<defs>
<linearGradient id="paint0_linear_5377_140" x1="9.97165" y1="10.8865" x2="9.97165" y2="14.2704" gradientUnits="userSpaceOnUse">
<stop stop-color="#F8836B"/>
<stop offset="1" stop-color="#FC621F"/>
</linearGradient>
</defs>
</svg>
