<svg width="117" height="24" viewBox="0 0 117 24" fill="none" xmlns="http://www.w3.org/2000/svg">
<path d="M10.266 3.47616C11.3561 3.47784 13.2021 3.38654 14.1976 3.60214C14.7173 3.71465 15.0989 3.94723 15.4867 4.30722C16.1577 4.93023 16.4292 5.56368 16.4544 6.47518C16.529 9.17147 16.5007 11.8776 16.4915 14.5748C16.4895 15.3694 16.4812 16.1641 16.4671 16.9586C16.4585 17.4475 16.4843 17.9754 16.3831 18.4547C16.2997 18.8496 15.9933 19.27 15.7191 19.5572C15.2701 20.0272 14.6019 20.4439 13.9349 20.4478C13.1826 20.4521 12.8688 19.8791 12.3997 19.4049C12.2795 19.3852 12.1485 19.3627 12.0267 19.3707C11.7238 19.3906 11.4921 19.6978 11.2992 19.9C10.9861 20.2284 10.6435 20.4727 10.1732 20.4781C9.43043 20.4865 8.9849 19.8478 8.5013 19.3805C8.39517 19.3712 8.28562 19.3579 8.17904 19.3629C7.78689 19.3812 7.53212 19.801 7.29525 20.0611C7.0383 20.3432 6.73801 20.4584 6.3597 20.4703C5.65106 20.4926 5.34481 20.0187 4.87923 19.5963C4.71409 19.4464 4.53209 19.3364 4.30111 19.359C3.944 19.3939 3.74412 19.7058 3.52767 19.9527C3.28052 20.2346 3.02749 20.4371 2.63802 20.4537C2.01825 20.48 1.39487 20.1587 0.942709 19.7574C0.34283 19.2249 0.0663459 18.6409 0.0266929 17.8414C-0.0182378 16.9333 0.00742441 16.0127 0.00618512 15.1031L0.00423199 10.1734L0.0110679 7.43319C0.0146551 6.90889 -0.0275649 6.30324 0.0804039 5.79061C0.179284 5.32138 0.451772 4.85536 0.77474 4.50546C1.59186 3.62044 2.4448 3.53234 3.58626 3.49179C5.8127 3.47337 8.03951 3.46848 10.266 3.47616ZM5.87435 6.88632C5.42336 7.01382 5.12313 7.20828 4.89486 7.63046C4.63889 8.10365 4.58839 8.69627 4.75228 9.20761C4.88478 9.621 5.15449 9.97737 5.55501 10.1607C5.71766 10.2351 5.8878 10.2577 6.06478 10.2701C6.51514 10.1455 6.81761 9.95463 7.04818 9.53475C7.3019 9.07292 7.35247 8.47532 7.19564 7.97421C7.06678 7.56269 6.80071 7.18829 6.40169 7.0035C6.23687 6.92723 6.05453 6.89796 5.87435 6.88632ZM10.472 6.88534C10.0239 6.99955 9.70733 7.18821 9.47396 7.60214C9.20933 8.07207 9.17412 8.77028 9.34212 9.27987C9.46795 9.66097 9.71949 9.97938 10.0843 10.1558C10.2666 10.2439 10.4467 10.2741 10.6478 10.2701C11.0552 10.1713 11.355 9.97757 11.5785 9.61483C11.8639 9.15158 11.9139 8.46783 11.766 7.94979C11.6562 7.56588 11.4146 7.22784 11.056 7.04159C10.8746 6.94754 10.6753 6.8989 10.472 6.88534Z" fill="url(#paint0_linear_5377_141)"/>
<path d="M110.232 19.0565C108.475 19.0565 107.035 18.723 105.913 18.0561C104.807 17.3729 104.172 16.4375 104.01 15.2501L108.597 14.2497C108.613 15.4046 109.199 15.9821 110.354 15.9821C110.679 15.9821 110.956 15.9089 111.183 15.7625C111.427 15.5998 111.549 15.3965 111.549 15.1525C111.549 14.8109 111.297 14.5506 110.793 14.3717C110.289 14.1927 109.679 14.0382 108.963 13.9081C108.247 13.7779 107.532 13.599 106.816 13.3712C106.1 13.1435 105.49 12.745 104.986 12.1756C104.482 11.59 104.229 10.8418 104.229 9.93083C104.229 8.59695 104.815 7.53148 105.986 6.73441C107.157 5.92107 108.597 5.5144 110.305 5.5144C111.948 5.5144 113.266 5.84787 114.258 6.51481C115.266 7.18175 115.901 8.07642 116.161 9.19882L111.745 10.1992C111.728 9.09309 111.2 8.54002 110.159 8.54002C109.345 8.54002 108.939 8.83282 108.939 9.41843C108.939 9.72749 109.191 9.9715 109.695 10.1504C110.216 10.3294 110.842 10.492 111.574 10.6384C112.306 10.7686 113.03 10.9556 113.745 11.1996C114.477 11.4274 115.096 11.8422 115.6 12.444C116.12 13.0459 116.381 13.8186 116.381 14.7621C116.381 16.1285 115.828 17.1858 114.721 17.9341C113.632 18.6823 112.135 19.0565 110.232 19.0565Z" fill="#2A2A2A"/>
<path d="M96.9287 19.0565C94.7978 19.0565 93.1223 18.4139 91.9023 17.1289C90.6823 15.8438 90.0723 14.2415 90.0723 12.322C90.0723 10.3538 90.7067 8.72709 91.9755 7.44202C93.2443 6.15694 94.8791 5.5144 96.8799 5.5144C98.8319 5.5144 100.394 6.12441 101.565 7.34441C102.752 8.54815 103.346 10.1504 103.346 12.1512C103.346 12.4928 103.313 12.9402 103.248 13.4932H94.7327C94.9604 14.7783 95.7168 15.4209 97.0019 15.4209C98.0755 15.4209 98.8075 14.8922 99.1979 13.8349L103.126 16.0553C102.492 16.9987 101.638 17.7389 100.564 18.2757C99.4907 18.7962 98.2788 19.0565 96.9287 19.0565ZM94.7815 10.9068H98.7343C98.6692 10.3212 98.474 9.86576 98.1487 9.54043C97.8234 9.19882 97.3923 9.02802 96.8555 9.02802C96.3024 9.02802 95.847 9.19882 95.4891 9.54043C95.1475 9.86576 94.9116 10.3212 94.7815 10.9068Z" fill="#2A2A2A"/>
<path d="M70.5664 18.6905V6.00241H75.0072V7.19801C75.7067 6.07561 76.7803 5.5144 78.2281 5.5144C79.7734 5.5144 80.8714 6.19761 81.5221 7.56402C82.189 6.19761 83.3927 5.5144 85.1333 5.5144C86.3858 5.5144 87.3537 5.92921 88.0369 6.75881C88.7201 7.57215 89.0617 8.75149 89.0617 10.2968V18.6905H84.6209V10.98C84.6209 10.5408 84.507 10.1992 84.2793 9.95523C84.0678 9.71123 83.7669 9.58923 83.3765 9.58923C82.4818 9.58923 82.0345 10.2155 82.0345 11.468V18.6905H77.5936V10.98C77.5936 10.5408 77.4798 10.1992 77.252 9.95523C77.0406 9.71123 76.7478 9.58923 76.3736 9.58923C75.9507 9.58923 75.6172 9.75189 75.3732 10.0772C75.1292 10.4026 75.0072 10.8662 75.0072 11.468V18.6905H70.5664Z" fill="#2A2A2A"/>
<path d="M64.657 18.6905V6.00243H69.0978V18.6905H64.657ZM68.683 4.39202C68.195 4.89629 67.5932 5.14843 66.8774 5.14843C66.1617 5.14843 65.5517 4.89629 65.0474 4.39202C64.5432 3.88776 64.291 3.27775 64.291 2.56201C64.291 1.86254 64.5432 1.26067 65.0474 0.756405C65.5517 0.252135 66.1617 0 66.8774 0C67.5769 0 68.1788 0.252135 68.683 0.756405C69.1873 1.26067 69.4394 1.86254 69.4394 2.56201C69.4394 3.27775 69.1873 3.88776 68.683 4.39202Z" fill="#2A2A2A"/>
<path d="M59.7787 18.6905C58.2334 18.6905 57.1028 18.3408 56.3871 17.6413C55.6876 16.9256 55.3379 15.795 55.3379 14.2497V4.78243L59.7543 0.756409H59.7787V6.00244H63.5363V9.95526H59.7787V14.7133H63.5363V18.6905H59.7787Z" fill="#2A2A2A"/>
<path d="M43.4443 23.9365L45.5427 18.3489H44.3715L39.9551 6.00244H44.7863L47.2995 13.8837L49.8127 6.00244H54.644L48.2023 23.9365H43.4443Z" fill="#2A2A2A"/>
<path d="M21.5039 18.6905V6.00241H25.9447V7.19801C26.6442 6.07561 27.7178 5.5144 29.1655 5.5144C30.7109 5.5144 31.8089 6.19761 32.4596 7.56402C33.1265 6.19761 34.3302 5.5144 36.0708 5.5144C37.3233 5.5144 38.2912 5.92921 38.9744 6.75881C39.6576 7.57215 39.9992 8.75149 39.9992 10.2968V18.6905H35.5584V10.98C35.5584 10.5408 35.4445 10.1992 35.2168 9.95523C35.0053 9.71123 34.7044 9.58923 34.314 9.58923C33.4193 9.58923 32.972 10.2155 32.972 11.468V18.6905H28.5311V10.98C28.5311 10.5408 28.4173 10.1992 28.1895 9.95523C27.9781 9.71123 27.6853 9.58923 27.3111 9.58923C26.8882 9.58923 26.5547 9.75189 26.3107 10.0772C26.0667 10.4026 25.9447 10.8662 25.9447 11.468V18.6905H21.5039Z" fill="#2A2A2A"/>
<defs>
<linearGradient id="paint0_linear_5377_141" x1="5.97165" y1="6.88646" x2="5.97165" y2="10.2704" gradientUnits="userSpaceOnUse">
<stop stop-color="#323131"/>
<stop offset="1"/>
</linearGradient>
</defs>
</svg>
